<svg width="100" height="100" viewBox="0 0 100 100" fill="none" xmlns="http://www.w3.org/2000/svg">
<mask id="path-1-inside-1_8500_21231" fill="white">
<path d="M94 50C94 74.3005 74.3005 94 50 94C25.6995 94 6 74.3005 6 50C6 25.6995 25.6995 6 50 6C74.3005 6 94 25.6995 94 50Z"/>
</mask>
<g clip-path="url(#paint0_angular_8500_21231_clip_path)" data-figma-skip-parse="true" mask="url(#path-1-inside-1_8500_21231)"><g transform="matrix(0 0.044 -0.044 0 50 50)"><foreignObject x="-1181.82" y="-1181.82" width="2363.64" height="2363.64"><div xmlns="http://www.w3.org/1999/xhtml" style="background:conic-gradient(from 90deg,rgba(143, 157, 239, 0) 0deg,rgba(143, 157, 239, 1) 360deg);height:100%;width:100%;opacity:1"></div></foreignObject></g></g><path d="M94 50H86C86 69.8823 69.8823 86 50 86V94V102C78.7188 102 102 78.7188 102 50H94ZM50 94V86C30.1177 86 14 69.8823 14 50H6H-2C-2 78.7188 21.2812 102 50 102V94ZM6 50H14C14 30.1177 30.1177 14 50 14V6V-2C21.2812 -2 -2 21.2812 -2 50H6ZM50 6V14C69.8823 14 86 30.1177 86 50H94H102C102 21.2812 78.7188 -2 50 -2V6Z" data-figma-gradient-fill="{&#34;type&#34;:&#34;GRADIENT_ANGULAR&#34;,&#34;stops&#34;:[{&#34;color&#34;:{&#34;r&#34;:0.56078433990478516,&#34;g&#34;:0.61568629741668701,&#34;b&#34;:0.93725490570068359,&#34;a&#34;:0.0},&#34;position&#34;:0.0},{&#34;color&#34;:{&#34;r&#34;:0.56078433990478516,&#34;g&#34;:0.61568629741668701,&#34;b&#34;:0.93725490570068359,&#34;a&#34;:1.0},&#34;position&#34;:1.0}],&#34;stopsVar&#34;:[{&#34;color&#34;:{&#34;r&#34;:0.56078433990478516,&#34;g&#34;:0.61568629741668701,&#34;b&#34;:0.93725490570068359,&#34;a&#34;:0.0},&#34;position&#34;:0.0},{&#34;color&#34;:{&#34;r&#34;:0.56078433990478516,&#34;g&#34;:0.61568629741668701,&#34;b&#34;:0.93725490570068359,&#34;a&#34;:1.0},&#34;position&#34;:1.0}],&#34;transform&#34;:{&#34;m00&#34;:5.3884462572538570e-15,&#34;m01&#34;:-88.0,&#34;m02&#34;:94.0,&#34;m10&#34;:88.0,&#34;m11&#34;:5.3884462572538570e-15,&#34;m12&#34;:6.0},&#34;opacity&#34;:1.0,&#34;blendMode&#34;:&#34;NORMAL&#34;,&#34;visible&#34;:true}" mask="url(#path-1-inside-1_8500_21231)"/>
<path d="M50 34V66M50 66L36 54.6452M50 66L64 54.6452" stroke="#3E58EB" stroke-width="6" stroke-linecap="round"/>
<defs>
<clipPath id="paint0_angular_8500_21231_clip_path"><path d="M94 50H86C86 69.8823 69.8823 86 50 86V94V102C78.7188 102 102 78.7188 102 50H94ZM50 94V86C30.1177 86 14 69.8823 14 50H6H-2C-2 78.7188 21.2812 102 50 102V94ZM6 50H14C14 30.1177 30.1177 14 50 14V6V-2C21.2812 -2 -2 21.2812 -2 50H6ZM50 6V14C69.8823 14 86 30.1177 86 50H94H102C102 21.2812 78.7188 -2 50 -2V6Z" mask="url(#path-1-inside-1_8500_21231)"/></clipPath></defs>
</svg>