<svg width="56" height="56" viewBox="0 0 56 56" fill="none" xmlns="http://www.w3.org/2000/svg">
<path d="M28 0C43.464 0 56 12.536 56 28C56 43.464 43.464 56 28 56C12.536 56 0 43.464 0 28C0 12.536 12.536 0 28 0ZM27.5166 33C26.715 33 26.0647 33.6497 26.0645 34.4512V41.5488C26.0647 42.3503 26.715 43 27.5166 43C28.3179 42.9997 28.9675 42.3502 28.9678 41.5488V34.4512C28.9675 33.6498 28.3179 33.0003 27.5166 33ZM24.1641 31.4648C23.5972 30.8791 22.6782 30.8792 22.1113 31.4648L17.3213 36.4141C16.7544 36.9998 16.7544 37.9503 17.3213 38.5361C17.8882 39.1215 18.8072 39.1217 19.374 38.5361L24.1641 33.5859C24.7308 33.0002 24.7308 32.0506 24.1641 31.4648ZM32.5303 31.0605C31.9634 30.475 31.0443 30.4749 30.4775 31.0605C29.9108 31.6462 29.911 32.5959 30.4775 33.1816L35.2676 38.1318C35.8345 38.7176 36.7544 38.7176 37.3213 38.1318C37.8879 37.5462 37.8877 36.5965 37.3213 36.0107L32.5303 31.0605ZM14.5 26.5C13.6716 26.5 13 27.1716 13 28C13.0001 28.8283 13.6716 29.5 14.5 29.5H21.1777C22.0059 29.4998 22.6776 28.8282 22.6777 28C22.6777 27.1717 22.006 26.5002 21.1777 26.5H14.5ZM34.8223 26.5C33.994 26.5002 33.3223 27.1717 33.3223 28C33.3223 28.8283 33.994 29.4998 34.8223 29.5H41.5C42.3284 29.5 43 28.8284 43 28C43 27.1716 42.3284 26.5 41.5 26.5H34.8223ZM19.374 17.4648C18.8071 16.8791 17.8872 16.8791 17.3203 17.4648C16.7537 18.0505 16.7538 19.0002 17.3203 19.5859L22.1104 24.5361C22.6772 25.1219 23.5972 25.1219 24.1641 24.5361C24.7307 23.9505 24.7306 23.0008 24.1641 22.415L19.374 17.4648ZM37.7119 17.4639C37.145 16.8785 36.226 16.8783 35.6592 17.4639L30.8691 22.4141C30.3024 22.9998 30.3024 23.9494 30.8691 24.5352C31.436 25.1209 32.355 25.1208 32.9219 24.5352L37.7119 19.5859C38.2788 19.0002 38.2788 18.0497 37.7119 17.4639ZM27.5166 13C26.715 13 26.0647 13.6497 26.0645 14.4512V21.5488C26.0647 22.3503 26.715 23 27.5166 23C28.3179 22.9997 28.9675 22.3502 28.9678 21.5488V14.4512C28.9675 13.6498 28.3179 13.0003 27.5166 13Z" fill="#3E58EB"/>
</svg>