<svg width="128" height="96" viewBox="0 0 128 96" fill="none" xmlns="http://www.w3.org/2000/svg">
	<path fill-rule="evenodd" clip-rule="evenodd" d="M83.9997 45.5C85.1778 45.5 86.0211 45.7409 86.7116 46.1582C87.3843 46.5648 87.8812 47.1232 88.3708 47.6641C88.5561 47.8688 88.5404 48.1858 88.3357 48.3711C88.1309 48.5562 87.8139 48.5406 87.6286 48.3359C87.1184 47.7724 86.7189 47.3309 86.194 47.0137C85.687 46.7074 85.0302 46.5 83.9997 46.5C82.9693 46.5001 82.3124 46.7074 81.8054 47.0137C81.2806 47.3309 80.881 47.7724 80.3708 48.3359C79.8812 48.8768 79.3843 49.4352 78.7116 49.8418C78.0211 50.2591 77.1778 50.5 75.9997 50.5C74.8217 50.4999 73.9783 50.2591 73.2878 49.8418C72.6152 49.4352 72.1182 48.8768 71.6286 48.3359C71.1184 47.7724 70.7189 47.3309 70.194 47.0137C69.687 46.7074 69.0302 46.5 67.9997 46.5C66.9693 46.5001 66.3124 46.7074 65.8054 47.0137C65.2806 47.3309 64.881 47.7724 64.3708 48.3359C63.8812 48.8768 63.3843 49.4352 62.7116 49.8418C62.0211 50.2591 61.1778 50.5 59.9997 50.5C58.8217 50.4999 57.9783 50.2591 57.2878 49.8418C56.6151 49.4352 56.1182 48.8768 55.6286 48.3359C55.1184 47.7724 54.7189 47.3309 54.194 47.0137C53.687 46.7074 53.0302 46.5 51.9997 46.5C50.9693 46.5001 50.3124 46.7074 49.8054 47.0137C49.2806 47.3309 48.881 47.7724 48.3708 48.3359C47.8812 48.8768 47.3843 49.4352 46.7116 49.8418C46.0211 50.2591 45.1778 50.5 43.9997 50.5C42.8217 50.4999 41.9783 50.2591 41.2878 49.8418C40.6151 49.4352 40.1182 48.8768 39.6286 48.3359C39.4436 48.1313 39.4593 47.8142 39.6638 47.6289C39.8684 47.4436 40.1855 47.4595 40.3708 47.6641C40.881 48.2276 41.2806 48.6691 41.8054 48.9863C42.3124 49.2926 42.9693 49.4999 43.9997 49.5C45.0302 49.5 45.687 49.2926 46.194 48.9863C46.7189 48.6691 47.1184 48.2276 47.6286 47.6641C48.1182 47.1232 48.6151 46.5648 49.2878 46.1582C49.9783 45.7409 50.8217 45.5001 51.9997 45.5C53.1778 45.5 54.0211 45.7409 54.7116 46.1582C55.3843 46.5648 55.8812 47.1232 56.3708 47.6641C56.881 48.2276 57.2806 48.6691 57.8054 48.9863C58.3124 49.2926 58.9693 49.4999 59.9997 49.5C61.0302 49.5 61.687 49.2926 62.194 48.9863C62.7189 48.6691 63.1184 48.2276 63.6286 47.6641C64.1182 47.1232 64.6151 46.5648 65.2878 46.1582C65.9783 45.7409 66.8217 45.5001 67.9997 45.5C69.1778 45.5 70.0211 45.7409 70.7116 46.1582C71.3843 46.5648 71.8812 47.1232 72.3708 47.6641C72.881 48.2276 73.2806 48.6691 73.8054 48.9863C74.3124 49.2926 74.9693 49.4999 75.9997 49.5C77.0302 49.5 77.687 49.2926 78.194 48.9863C78.7189 48.6691 79.1184 48.2276 79.6286 47.6641C80.1182 47.1232 80.6152 46.5648 81.2878 46.1582C81.9783 45.7409 82.8217 45.5001 83.9997 45.5Z" fill="#EBEBEB"/>
</svg>