<svg width="28" height="28" viewBox="0 0 28 28" fill="none" xmlns="http://www.w3.org/2000/svg">
<g transform="translate(14 14) rotate(45) translate(-4.25 -9)">
<path d="M4.25 0c2.347 0 4.25 1.903 4.25 4.25v3a3.95 3.95 0 0 1-.016.354 5.51 5.51 0 0 0-1.484-1.296V4.25c0-1.519-1.232-2.75-2.75-2.75S1.5 2.731 1.5 4.25v3c0 1.519 1.231 2.75 2.75 2.75.5 0 .97-.137 1.374-.371.254.303.408.694.408 1.121v.358a4.25 4.25 0 0 1-1.782.392A4.25 4.25 0 0 1 0 7.25v-3A4.25 4.25 0 0 1 4.25 0Z" fill="#252525"/>
<path d="M4.25 18C1.903 18 0 16.097 0 13.75v-3c0-.12.007-.238.017-.354.404.538.907.996 1.483 1.346v2.008C1.5 15.269 2.731 16.5 4.25 16.5s2.75-1.231 2.75-2.75v-3c0-1.519-1.231-2.75-2.75-2.75-.5 0-.97.137-1.374.371A1.74 1.74 0 0 1 2.469 7.25v-.358A4.25 4.25 0 0 1 4.25 6.5a4.25 4.25 0 0 1 4.25 4.25v3c0 2.347-1.902 4.25-4.25 4.25Z" fill="#252525"/>
</g>
</svg>
